<svg version="1.1" xmlns="http://www.w3.org/2000/svg" viewBox="0 0 1223.1645168855325 290.78658953551786" width="2446.329033771065" height="581.5731790710357">
  <!-- svg-source:excalidraw -->
  
  <defs>
    <style>
      @font-face {
        font-family: "Virgil";
        src: url("https://excalidraw.com/Virgil.woff2");
      }
      @font-face {
        font-family: "Cascadia";
        src: url("https://excalidraw.com/Cascadia.woff2");
      }
    </style>
  </defs>
  <g stroke-linecap="round" transform="translate(10 123.19368411424335) rotate(0 59.15799873624235 31.160405112533056)"><path d="M1.37 1.47 C31.39 -0.52, 63.11 1.19, 118.29 -1.14 M0.35 0.45 C42.43 -1.68, 82.74 -0.04, 118.77 0.78 M119.02 0.79 C118.22 17.1, 119.53 36.27, 116.95 60.51 M119.14 -0.86 C118.9 20.74, 117.57 39.59, 118.57 62.36 M116.55 60.78 C91.43 60.76, 70.1 60.74, -1.16 63.86 M118.05 61.59 C93.59 63.04, 70.3 61.94, -0.71 63.3 M0.24 61.53 C-2.52 42.4, -0.74 25.26, 1.67 -0.7 M-0.47 61.94 C1.05 43.41, 0.26 23.83, 0.98 0.46" stroke="#000000" stroke-width="1" fill="none"></path></g><g transform="translate(23.71507314656344 148.95781409724685) rotate(0 41.42023717740466 6.680683415710433)"><text x="0" y="9.361366831420852" font-family="Virgil, Segoe UI Emoji" font-size="10.689093465136684px" fill="#000000" text-anchor="start" style="white-space: pre;" direction="ltr">Account Service</text></g><g stroke-linecap="round"><g transform="translate(129.41134868134122 154.07430599805878) rotate(0 41.67917185367469 1.72660255998386)"><path d="M-0.28 1.01 C13.7 1.21, 69.76 1.58, 83.64 1.74 M1.78 0.49 C15.68 0.8, 69.63 2.53, 83.03 2.96" stroke="#000000" stroke-width="1" fill="none"></path></g><g transform="translate(129.41134868134122 154.07430599805878) rotate(0 41.67917185367469 1.72660255998386)"><path d="M56.21 13.41 C61.46 9.73, 69.8 8.08, 82.49 1.89 M55.01 12.72 C65.52 8.61, 76.73 4.02, 83.13 3.75" stroke="#000000" stroke-width="1" fill="none"></path></g><g transform="translate(129.41134868134122 154.07430599805878) rotate(0 41.67917185367469 1.72660255998386)"><path d="M56.87 -7.1 C62.02 -5.05, 70.18 -0.97, 82.49 1.89 M55.67 -7.79 C65.72 -3.77, 76.68 -0.24, 83.13 3.75" stroke="#000000" stroke-width="1" fill="none"></path></g></g><g stroke-linecap="round"><g transform="translate(216.50878783053156 137.27171006419323) rotate(0 22.118654064684904 14.330991156406412)" fill-rule="evenodd"><path d="M1.64 -5.86 L-0.49 34.12 L15.2 41.51 L21.23 40.96 L34.9 39.97 L43.83 34.95 L44.38 -7.76 L29.96 -11.67 L18.91 -10.22 L7.91 -11.36 L1.46 -7.99" stroke="none" stroke-width="0" fill="#ced4da" fill-rule="evenodd"></path><path d="M0.42 -7.2 C0.42 -1.27, 0.15 22.39, 0.29 29.41 C0.42 36.42, 0.16 33.55, 1.25 34.9 C2.34 36.25, 4.69 36.68, 6.83 37.5 C8.96 38.31, 11.45 39.2, 14.05 39.78 C16.65 40.37, 19.83 41, 22.44 41 C25.05 41, 27.59 40.26, 29.71 39.8 C31.83 39.33, 32.79 39.03, 35.15 38.19 C37.52 37.35, 42.67 36.13, 43.9 34.75 C45.12 33.36, 42.41 35.81, 42.52 29.88 C42.64 23.95, 44.42 5.31, 44.58 -0.83 C44.73 -6.96, 44.58 -5.39, 43.47 -6.94 C42.35 -8.49, 39.74 -9.43, 37.88 -10.14 C36.03 -10.85, 34.73 -10.98, 32.34 -11.18 C29.94 -11.38, 25.57 -11.38, 23.5 -11.34 C21.42 -11.3, 22.44 -11.04, 19.88 -10.95 C17.32 -10.86, 11.6 -11.56, 8.12 -10.79 C4.63 -10.02, 0.37 -7.24, -1.01 -6.33 M-0.82 -5.12 C-0.97 0.44, -0.77 20.65, -0.51 27.5 C-0.25 34.35, -0.6 34.15, 0.73 35.99 C2.06 37.82, 5.5 37.78, 7.48 38.5 C9.46 39.22, 9.9 39.98, 12.63 40.31 C15.36 40.64, 20.91 40.77, 23.88 40.48 C26.84 40.2, 28.2 39.04, 30.41 38.59 C32.63 38.14, 35.12 38.05, 37.16 37.76 C39.2 37.47, 41.72 38.16, 42.65 36.84 C43.58 35.53, 42.32 36.57, 42.75 29.89 C43.19 23.22, 45.35 3.06, 45.25 -3.2 C45.14 -9.46, 43.3 -6.89, 42.11 -7.68 C40.92 -8.46, 39.8 -7.24, 38.1 -7.91 C36.41 -8.59, 34.34 -11.05, 31.93 -11.75 C29.52 -12.45, 26.01 -12.46, 23.66 -12.12 C21.32 -11.79, 20.63 -10, 17.84 -9.73 C15.06 -9.45, 9.76 -11.1, 6.93 -10.48 C4.09 -9.87, 2.26 -7.01, 0.84 -6.03" stroke="#495057" stroke-width="1" fill="none"></path></g></g><g stroke-linecap="round" transform="translate(215.77564821940757 124.89468657547934) rotate(0 21.916726597759066 5.959045725271224)"><path d="M11.61 1.54 C15.39 0.92, 21.9 -0.44, 26.48 -0.2 C31.07 0.03, 36.07 1.93, 39.11 2.94 C42.15 3.96, 45.12 4.62, 44.72 5.9 C44.32 7.19, 40.24 9.53, 36.73 10.66 C33.22 11.79, 28.32 12.74, 23.64 12.66 C18.96 12.57, 12.48 10.9, 8.64 10.13 C4.81 9.36, 1.74 9, 0.64 8.05 C-0.47 7.09, -0.51 5.62, 2.02 4.38 C4.55 3.15, 13 1.19, 15.82 0.65 C18.64 0.11, 18.86 1.1, 18.94 1.14 M11.97 0.24 C16.26 -0.3, 24.03 0.01, 28.54 0.14 C33.05 0.27, 36.73 0.1, 39.04 1.03 C41.36 1.95, 42.58 3.95, 42.42 5.69 C42.27 7.43, 41.06 10.58, 38.1 11.48 C35.14 12.39, 29.37 11.37, 24.67 11.1 C19.98 10.84, 14.09 10.38, 9.91 9.88 C5.73 9.37, 0.8 9.36, -0.42 8.09 C-1.64 6.82, 0.55 3.71, 2.58 2.25 C4.62 0.79, 10.08 -0.28, 11.79 -0.69 C13.5 -1.11, 12.58 -0.68, 12.85 -0.24" stroke="none" stroke-width="0" fill="#ffffff"></path><path d="M26.39 -0.06 C30.78 0.17, 35.88 1.2, 38.8 2.34 C41.71 3.49, 43.87 5.52, 43.87 6.79 C43.87 8.07, 41.98 9.2, 38.79 10.01 C35.59 10.83, 29.24 11.56, 24.71 11.69 C20.18 11.83, 15.66 11.32, 11.62 10.83 C7.58 10.34, 2.08 9.81, 0.46 8.74 C-1.16 7.66, 0.12 5.8, 1.88 4.39 C3.65 2.98, 6.7 1.15, 11.07 0.3 C15.43 -0.55, 24.8 -0.67, 28.07 -0.73 C31.33 -0.78, 30.79 -0.22, 30.65 -0.02 M30.76 -0.62 C34.85 -0.19, 39.69 1.84, 41.9 3.43 C44.1 5.02, 45.27 7.82, 43.98 8.92 C42.69 10.02, 38.41 9.35, 34.14 10 C29.88 10.65, 22.84 12.95, 18.38 12.81 C13.93 12.67, 10.35 10.43, 7.41 9.16 C4.47 7.89, 1.05 6.24, 0.75 5.2 C0.45 4.16, 2.91 3.66, 5.59 2.94 C8.27 2.23, 12.63 1.53, 16.82 0.92 C21.01 0.31, 28.43 -0.71, 30.75 -0.72 C33.07 -0.73, 30.62 0.56, 30.72 0.86" stroke="#495057" stroke-width="1" fill="none"></path></g><g transform="translate(216.34315293208704 176.8439237139135) rotate(0 21.429060319604048 5.411378868586894)"><text x="21.42906031960407" y="7.822757737173786" font-family="Virgil, Segoe UI Emoji" font-size="8.658206189739026px" fill="#000000" text-anchor="middle" style="white-space: pre;" direction="ltr">Database</text></g><g stroke-linecap="round" transform="translate(327.29763063640473 10) rotate(0 137.68715540442037 135.39329476775893)"><path d="M0.21 -0.24 C104.14 -2.84, 206.92 -2.4, 275.36 1.37 M274.11 -1.18 C271.73 73.1, 271.89 143.76, 274.06 270.31 M276.48 271.41 C171.19 270.76, 64.7 268.69, -1.14 270.16 M-1.44 269.24 C-0.96 169.52, -1.27 65.83, -0.87 1.25" stroke="#000000" stroke-width="1.5" fill="none" stroke-dasharray="1.5 7"></path></g><g stroke-linecap="round"><g transform="translate(266.50505614964607 151.1103083807244) rotate(0 55.23003221201003 -23.67595010016754)"><path d="M1.19 -0.47 C19.31 -8.17, 89.82 -39.25, 108.01 -46.88 M0.35 -1.77 C18.89 -9.24, 91.81 -38.42, 110.11 -45.61" stroke="#000000" stroke-width="1" fill="none"></path></g><g transform="translate(266.50505614964607 151.1103083807244) rotate(0 55.23003221201003 -23.67595010016754)"><path d="M86.91 -27.62 C92.27 -28.71, 98.61 -33.81, 111.11 -44.6 M87.99 -26.51 C94.15 -31.55, 100.61 -35.95, 109.44 -44.83" stroke="#000000" stroke-width="1" fill="none"></path></g><g transform="translate(266.50505614964607 151.1103083807244) rotate(0 55.23003221201003 -23.67595010016754)"><path d="M79.33 -46.69 C86.38 -43.33, 94.51 -43.91, 111.11 -44.6 M80.41 -45.58 C88.82 -45.38, 97.37 -44.51, 109.44 -44.83" stroke="#000000" stroke-width="1" fill="none"></path></g></g><g transform="translate(338.93338839315095 20.072589940771195) rotate(0 26.863418310731277 5.643575275363702)"><text x="0" y="7.287150550727418" font-family="Virgil, Segoe UI Emoji" font-size="9.029720440581936px" fill="#000000" text-anchor="start" style="white-space: pre;" direction="ltr">Transaction</text></g><g stroke-linecap="round" transform="translate(382.7893581064002 67.46616990648045) rotate(0 81.46033866748047 27.43848617183994)"><path d="M1.27 -1.46 C37.29 -0.97, 74.97 0.01, 161.74 -1.53 M0.55 -0.72 C35.17 1.87, 71.42 1.83, 162.4 0.24 M164.16 0.52 C163.79 11.98, 162.67 25.61, 161.04 53.28 M162.89 -0.71 C162.27 17.48, 164.01 36.61, 162.87 53.89 M163.04 56.71 C116.95 55.42, 68.06 58.3, 0.84 54.98 M162.95 55.82 C125.54 53.89, 89.28 54.18, -0.55 54.49 M-1.72 56.45 C0.52 36.32, -1.59 17.19, 0.52 -0.01 M0.05 55.31 C1.43 34.56, 0.08 16.28, 0.07 -0.48" stroke="#000000" stroke-width="1" fill="none"></path></g><g transform="translate(415.1860363402718 86.05993007830955) rotate(0 47.90709100112878 9.073312689607718)"><text x="0" y="12.14662537921545" font-family="Virgil, Segoe UI Emoji" font-size="14.517300303372355px" fill="#000000" text-anchor="start" style="white-space: pre;" direction="ltr">Outbox table</text></g><g transform="translate(410.4143055623093 190.75607568446372) rotate(0 50.08468604663466 9.073312689607718)"><text x="0" y="12.14662537921545" font-family="Virgil, Segoe UI Emoji" font-size="14.517300303372357px" fill="#000000" text-anchor="start" style="white-space: pre;" direction="ltr">Account table</text></g><g stroke-linecap="round" transform="translate(381.5551074192058 172.31643212266175) rotate(0 81.46033866748047 27.43848617183994)"><path d="M-0.51 0.16 C36.6 0, 69.97 -1.7, 162.84 -1.8 M0.93 -0.01 C64.63 2.22, 128.83 0.96, 163.76 0.83 M162.05 -0.99 C161.92 20.82, 165.19 42.63, 164.73 55 M162.67 0.4 C162.22 12.25, 162.86 25.06, 163.15 55.29 M161.19 53.16 C109.22 56.12, 56.02 53.65, -1.18 54.75 M163.19 54.57 C107.56 56.49, 52.19 57.06, 0.65 55.47 M-0.83 55.73 C-0.66 33.76, -0.54 16.21, 0.63 -0.07 M0.1 53.94 C-0.4 41.93, 1.04 28.16, 0.9 0.59" stroke="#000000" stroke-width="1" fill="none"></path></g><g stroke-linecap="round"><g transform="translate(268.172029738374 161.45457923874176) rotate(0 52.53115464524018 18.839030067271267)"><path d="M1.04 -1.13 C18.11 5.14, 85.69 31.27, 102.57 37.79 M0.12 0.89 C17.59 7.27, 87.51 32.47, 104.94 38.81" stroke="#000000" stroke-width="1" fill="none"></path></g><g transform="translate(268.172029738374 161.45457923874176) rotate(0 52.53115464524018 18.839030067271267)"><path d="M73.06 37.8 C82.51 37.09, 92.1 36.93, 104.06 40.35 M75.63 38.37 C81.43 38.79, 88.99 39.96, 105.55 38.25" stroke="#000000" stroke-width="1" fill="none"></path></g><g transform="translate(268.172029738374 161.45457923874176) rotate(0 52.53115464524018 18.839030067271267)"><path d="M80.04 18.5 C87.37 23.79, 94.82 29.56, 104.06 40.35 M82.62 19.08 C86.82 23.86, 92.79 29.46, 105.55 38.25" stroke="#000000" stroke-width="1" fill="none"></path></g></g><g stroke-linecap="round"><g transform="translate(664.3330495174371 143.67758314816837) rotate(0 -53.52447063662288 -23.68931111590453)"><path d="M-0.33 0.83 C-18.28 -7.34, -90.08 -40.22, -108.28 -48.21 M1.69 0.23 C-16.28 -7.92, -90.04 -39.59, -108.74 -47.28" stroke="#000000" stroke-width="1" fill="none"></path></g><g transform="translate(664.3330495174371 143.67758314816837) rotate(0 -53.52447063662288 -23.68931111590453)"><path d="M-77.39 -44.23 C-88.26 -46.82, -94.05 -46.86, -107.04 -48.4 M-79.04 -44.9 C-89.81 -47.14, -100.61 -46.29, -107.88 -46.5" stroke="#000000" stroke-width="1" fill="none"></path></g><g transform="translate(664.3330495174371 143.67758314816837) rotate(0 -53.52447063662288 -23.68931111590453)"><path d="M-85.37 -25.32 C-94.35 -32.66, -98.13 -37.47, -107.04 -48.4 M-87.02 -25.99 C-95.1 -35.03, -103.04 -40.96, -107.88 -46.5" stroke="#000000" stroke-width="1" fill="none"></path></g></g><g transform="translate(678.3523556598764 144.03801208483907) rotate(0 52.98814610730915 9.073312689607718)"><text x="0" y="12.14662537921545" font-family="Virgil, Segoe UI Emoji" font-size="14.51730030337236px" fill="#000000" text-anchor="start" style="white-space: pre;" direction="ltr">Message Relay</text></g><g transform="translate(890.343782064044 158.4404298076796) rotate(0 53.385541474497586 8.897590245749598)"><text x="0" y="12.79518049149921" font-family="Virgil, Segoe UI Emoji" font-size="13.596735744621432px" fill="#000000" text-anchor="start" style="white-space: pre;" direction="ltr">Message Broker</text></g><g stroke-linecap="round"><g transform="translate(803.7989446815457 153.1128939435401) rotate(0 32.946714073615794 0.312291068823356)"><path d="M-0.13 -0.66 C11.06 -0.98, 56.18 -1.04, 67.56 -0.95 M-1.66 1.61 C9.29 1.43, 54.84 1.27, 66.36 0.66" stroke="#000000" stroke-width="1" fill="none"></path></g><g transform="translate(803.7989446815457 153.1128939435401) rotate(0 32.946714073615794 0.312291068823356)"><path d="M37.33 10.81 C47.91 8.14, 58.55 4.11, 66.47 1.76 M38.41 11.86 C45.39 7.81, 53.08 5.41, 65.68 -0.28" stroke="#000000" stroke-width="1" fill="none"></path></g><g transform="translate(803.7989446815457 153.1128939435401) rotate(0 32.946714073615794 0.312291068823356)"><path d="M36.82 -9.7 C47.74 -5.53, 58.54 -2.71, 66.47 1.76 M37.9 -8.65 C45.12 -6.96, 52.96 -3.62, 65.68 -0.28" stroke="#000000" stroke-width="1" fill="none"></path></g></g><g stroke-linecap="round" transform="translate(673.1223493292887 119.32588289786275) rotate(0 59.15799873624235 31.160405112533056)"><path d="M0.79 1.98 C43.42 0.61, 84.37 -1.98, 119.14 -0.7 M-0.19 -0.49 C24.89 1.17, 48.81 1.19, 118.49 -0.27 M116.99 0.11 C120.04 11.9, 119.42 25.99, 118.55 61.05 M119.08 0.97 C118.51 19.7, 117.28 41.48, 117.41 61.73 M119.81 63.68 C94.61 63.93, 66.58 63.63, 0.58 62.59 M117.61 63.08 C91.32 61.48, 64.13 62.47, -0.69 61.33 M-0.15 61.81 C2.04 43.2, 0.87 21.52, 1.09 -0.91 M0.27 62.76 C-0.48 48.38, -1.09 34.07, 0.79 0.72" stroke="#000000" stroke-width="1" fill="none"></path></g><g stroke-linecap="round" transform="translate(881.2735796474349 118.51118154405106) rotate(0 59.15799873624235 31.160405112533056)"><path d="M0.63 -0.07 C42.18 -2.06, 80.8 0.45, 118.37 -1.37 M-0.86 0.53 C46.28 1.36, 94.75 0.43, 118.5 -0.16 M118.09 1.25 C117.82 17.21, 117.38 32.3, 120.03 63.7 M117.54 0.5 C117.81 23.84, 117.52 46.02, 119 62.69 M119.52 60.97 C89.14 61.93, 64.56 63.1, 1.74 64.14 M119.05 61.77 C76.57 62.26, 35.29 60.82, -0.07 61.36 M1.93 62.89 C-0.67 46.25, 1.77 31.44, -1.02 -0.01 M-0.75 61.91 C0.63 42.11, 1.15 23.33, 0.42 -0.34" stroke="#000000" stroke-width="1" fill="none"></path></g><g stroke-linecap="round" transform="translate(1094.8485194130478 115.58772869626796) rotate(0 59.15799873624235 31.160405112533056)"><path d="M0.74 1.8 C46.43 -2.07, 90.15 -2.17, 116.72 0.91 M-0.86 -0.34 C38.32 -1.2, 78.1 -0.3, 118.72 0.75 M119.81 -0.3 C119.24 16.17, 117.98 33.38, 119.77 62.15 M118.47 1 C118.05 13.66, 119 27.3, 118.3 61.77 M118.31 62.45 C76.98 62.22, 37.51 59.94, 0.35 61.39 M117.91 62.99 C89.28 61.45, 58.93 60.76, 0.25 63.17 M1.61 62.98 C0.97 46.34, 1.66 28.08, -1.99 -0.88 M0.71 62.07 C-0.17 41.32, -0.79 18.35, 0.01 -0.52" stroke="#000000" stroke-width="1" fill="none"></path></g><g transform="translate(1111.056409965658 133.1842644585273) rotate(0 43.5 13.5)"><text x="0" y="9.5" font-family="Virgil, Segoe UI Emoji" font-size="10.689093465136684px" fill="#000000" text-anchor="start" style="white-space: pre;" direction="ltr">Recommendations</text><text x="0" y="23" font-family="Virgil, Segoe UI Emoji" font-size="10.689093465136684px" fill="#000000" text-anchor="start" style="white-space: pre;" direction="ltr">     Service</text></g><g stroke-linecap="round"><g transform="translate(1081.4756904156584 148.3355113392165) rotate(0 -34.45718102491412 -0.48757271685036585)"><path d="M-0.69 0.48 C-12.14 0.58, -57.86 0.24, -69.66 0.14 M1.14 -0.31 C-10.29 -0.5, -58.37 -1.18, -70.06 -1.47" stroke="#000000" stroke-width="1" fill="none"></path></g><g transform="translate(1081.4756904156584 148.3355113392165) rotate(0 -34.45718102491412 -0.48757271685036585)"><path d="M-40.87 -9.45 C-46.33 -10.53, -52.95 -6.31, -68.19 -2.9 M-42.61 -10.47 C-49.08 -8.96, -59.06 -6.01, -69.87 -1.69" stroke="#000000" stroke-width="1" fill="none"></path></g><g transform="translate(1081.4756904156584 148.3355113392165) rotate(0 -34.45718102491412 -0.48757271685036585)"><path d="M-41.26 11.07 C-46.56 5.5, -53.09 5.23, -68.19 -2.9 M-43 10.05 C-49.35 5.61, -59.21 2.62, -69.87 -1.69" stroke="#000000" stroke-width="1" fill="none"></path></g></g><g stroke-linecap="round"><g transform="translate(926.0146015512969 364.29907098572096) rotate(0 13.724342385532509 -223.88766846052306)" fill-rule="evenodd"><path d="M-2.37 -219.6 L-1.45 -211.04 L25.22 -210.49 L30.13 -210.49 L25.86 -225 L15.79 -228.62 L16.76 -237.38 L13.51 -237.5 L12.19 -237.16 L11.06 -225.23 L6.75 -225.4 L3.7 -228.6 L5.38 -237.21 L-0.2 -237.8 L-1.15 -238.6 L-0.94 -222.69" stroke="none" stroke-width="0" fill="#fd7e14" fill-rule="evenodd"></path><path d="M-2.11 -221.76 C-2.16 -220.59, -1.76 -216.33, -1.69 -214.29 C-1.61 -212.26, -2.63 -210.43, -1.66 -209.52 C-0.68 -208.61, 1.36 -209.14, 4.16 -208.83 C6.96 -208.52, 11.7 -207.72, 15.15 -207.66 C18.61 -207.61, 22.69 -207.96, 24.9 -208.52 C27.11 -209.08, 27.59 -210.07, 28.42 -211.02 C29.25 -211.97, 29.86 -212.28, 29.86 -214.24 C29.87 -216.19, 28.69 -221.08, 28.45 -222.75 C28.2 -224.41, 29.01 -223.64, 28.41 -224.23 C27.8 -224.82, 25.89 -226.07, 24.82 -226.29 C23.74 -226.5, 23.24 -225.47, 21.95 -225.51 C20.67 -225.54, 18.06 -225.24, 17.11 -226.5 C16.16 -227.76, 16.34 -231.32, 16.27 -233.07 C16.2 -234.82, 17.09 -236, 16.69 -237 C16.29 -237.99, 14.9 -238.67, 13.86 -239.07 C12.83 -239.47, 11.07 -240.56, 10.49 -239.4 C9.9 -238.24, 10.28 -233.98, 10.34 -232.1 C10.39 -230.23, 11.46 -229.05, 10.8 -228.14 C10.13 -227.23, 7.55 -226.86, 6.34 -226.65 C5.14 -226.44, 3.9 -226.02, 3.57 -226.88 C3.25 -227.74, 4.17 -230.06, 4.39 -231.82 C4.61 -233.59, 5.24 -236.06, 4.91 -237.46 C4.59 -238.85, 3.32 -240.09, 2.44 -240.2 C1.55 -240.31, 0.27 -239.65, -0.41 -238.12 C-1.09 -236.59, -1.38 -233.86, -1.65 -231.03 C-1.91 -228.21, -1.93 -222.68, -2 -221.17 M-0.38 -223.06 C-0.61 -221.75, -3.08 -215.6, -2.92 -213.15 C-2.75 -210.7, -0.57 -209.28, 0.61 -208.38 C1.8 -207.48, 1.99 -207.41, 4.19 -207.75 C6.39 -208.09, 10.12 -210.11, 13.81 -210.39 C17.5 -210.67, 23.77 -209.64, 26.32 -209.44 C28.87 -209.25, 28.59 -208.38, 29.12 -209.22 C29.64 -210.05, 29.26 -212.48, 29.47 -214.45 C29.67 -216.42, 30.37 -219.43, 30.37 -221.03 C30.37 -222.64, 30.35 -223.42, 29.47 -224.1 C28.59 -224.79, 26.47 -224.93, 25.07 -225.14 C23.67 -225.34, 22.32 -225.02, 21.07 -225.33 C19.82 -225.64, 18.49 -225.64, 17.57 -227 C16.65 -228.35, 15.59 -231.8, 15.57 -233.46 C15.54 -235.11, 17.47 -236.23, 17.4 -236.93 C17.33 -237.63, 16.52 -237.28, 15.14 -237.67 C13.77 -238.06, 10.19 -240.29, 9.17 -239.26 C8.15 -238.23, 8.92 -233.3, 9.02 -231.48 C9.12 -229.67, 10.24 -229.48, 9.79 -228.39 C9.33 -227.29, 6.99 -225.01, 6.29 -224.92 C5.58 -224.83, 5.81 -226.54, 5.54 -227.85 C5.26 -229.16, 4.68 -231.07, 4.63 -232.77 C4.58 -234.46, 5.86 -237.16, 5.24 -238.03 C4.62 -238.9, 2.13 -238.02, 0.91 -238 C-0.31 -237.98, -1.82 -239.03, -2.08 -237.91 C-2.34 -236.79, -0.84 -234.01, -0.65 -231.29 C-0.46 -228.56, -0.87 -223.39, -0.95 -221.56" stroke="#000000" stroke-width="1" fill="none"></path></g></g><g stroke-linecap="round"><g transform="translate(942.4201647595125 164.96473933168903) rotate(0 3.5819833110737136 -18.486167886871414)" fill-rule="evenodd"><path d="M1.99 -18.92 L2.37 -21.43 L3.59 -20.81 L6.44 -14.66 L-1.15 -17.68 L-0.46 -21.64" stroke="none" stroke-width="0" fill="#ffff" fill-rule="evenodd"></path><path d="M-0.48 -20.25 C-0.5 -20.49, -0.49 -21.8, -0.14 -22.04 C0.2 -22.27, 0.89 -21.82, 1.59 -21.66 C2.28 -21.5, 3.2 -21.23, 4.03 -21.07 C4.86 -20.91, 6.22 -21.05, 6.57 -20.7 C6.92 -20.36, 6.4 -19.74, 6.12 -18.99 C5.85 -18.24, 4.98 -16.71, 4.94 -16.21 C4.9 -15.71, 6.18 -16.22, 5.89 -15.99 C5.6 -15.77, 3.69 -14.94, 3.21 -14.87 C2.72 -14.79, 3.4 -15.52, 2.99 -15.53 C2.58 -15.55, 1.03 -14.71, 0.75 -14.96 C0.46 -15.21, 1.3 -16.26, 1.28 -17.05 C1.26 -17.84, 0.9 -19.38, 0.62 -19.71 M1.46 -17.91 C1.83 -17.98, 2.31 -20.69, 2.18 -21.13 C2.04 -21.57, 0.3 -20.77, 0.65 -20.56 C0.99 -20.34, 3.42 -19.88, 4.25 -19.84 C5.08 -19.8, 5.07 -20.28, 5.64 -20.3 C6.21 -20.32, 7.75 -20.54, 7.65 -19.98 C7.56 -19.42, 5.52 -17.53, 5.07 -16.93 C4.63 -16.34, 5.06 -16.56, 4.99 -16.4 C4.92 -16.23, 5.36 -16.01, 4.64 -15.96 C3.92 -15.9, 1.24 -15.86, 0.67 -16.05 C0.1 -16.24, 1.26 -16.91, 1.23 -17.11 C1.2 -17.31, 0.48 -16.67, 0.47 -17.24 C0.46 -17.81, 1.47 -20.27, 1.18 -20.53" stroke="#000000" stroke-width="1" fill="none"></path></g></g><g stroke-linecap="round"><g transform="translate(371.58730719869527 150.11510492065014) rotate(0 -134.89812136997813 6.328983879117246)"><path d="M-131.35 -7.78 C-131.94 -7.96, -133.41 -8.34, -134.12 -8.61 C-134.82 -8.87, -134.85 -9.55, -135.57 -9.37 C-136.28 -9.19, -136.73 -7.49, -138.41 -7.51 C-140.09 -7.54, -143.75 -9.62, -145.65 -9.54 C-147.56 -9.45, -149 -8.93, -149.84 -7.01 C-150.68 -5.09, -151.15 -0.65, -150.71 1.99 C-150.27 4.64, -148.44 7.01, -147.2 8.86 C-145.97 10.7, -144.36 12.81, -143.32 13.07 C-142.27 13.33, -141.72 11.05, -140.92 10.44 C-140.12 9.83, -139.32 9.57, -138.51 9.39 C-137.69 9.21, -136.28 8.99, -136.01 9.34 C-135.74 9.7, -136.33 11.19, -136.88 11.52 C-137.42 11.85, -138.56 11.21, -139.28 11.32 C-139.99 11.44, -141.4 11.78, -141.16 12.19 C-140.92 12.59, -138.68 13.67, -137.86 13.74 C-137.05 13.82, -136.56 12.8, -136.28 12.65 C-135.99 12.51, -136.4 11.85, -136.15 12.87 C-135.9 13.89, -135.54 17.03, -134.78 18.75 C-134.02 20.47, -132.62 22.66, -131.59 23.18 C-130.56 23.7, -129.52 22.94, -128.61 21.89 C-127.7 20.84, -126.44 18.12, -126.12 16.88 C-125.8 15.63, -126.61 15.06, -126.69 14.41 C-126.77 13.75, -127.45 13.23, -126.57 12.95 C-125.68 12.66, -122.36 13.08, -121.38 12.69 C-120.4 12.3, -120.52 11.16, -120.68 10.59 C-120.83 10.03, -121.74 9.72, -122.32 9.29 C-122.9 8.87, -124.17 8.9, -124.16 8.06 C-124.15 7.23, -122.95 5.95, -122.25 4.27 C-121.55 2.59, -120.58 -0.33, -119.96 -2.03 C-119.34 -3.73, -118.09 -4.77, -118.54 -5.92 C-118.99 -7.07, -121.08 -8.45, -122.66 -8.94 C-124.23 -9.42, -126.75 -8.97, -128.01 -8.81 C-129.27 -8.65, -129.63 -8.12, -130.2 -7.98 M-129.44 -8.65 C-130.21 -9.25, -134.06 -10.52, -135.14 -10.49 C-136.21 -10.47, -135.41 -9.22, -135.89 -8.5 C-136.38 -7.78, -136.16 -6.04, -138.03 -6.18 C-139.89 -6.32, -144.82 -9.55, -147.09 -9.34 C-149.37 -9.13, -151.18 -6.63, -151.69 -4.93 C-152.21 -3.23, -150.8 -1.34, -150.2 0.84 C-149.59 3.02, -148.95 5.8, -148.04 8.16 C-147.13 10.52, -145.98 14.61, -144.75 15.01 C-143.53 15.42, -141.7 11.36, -140.67 10.6 C-139.63 9.83, -139.17 10.75, -138.53 10.42 C-137.89 10.08, -136.64 8.5, -136.84 8.59 C-137.03 8.69, -139.18 10.59, -139.71 10.98 C-140.24 11.38, -139.83 10.91, -140.02 10.97 C-140.2 11.03, -141.4 11.23, -140.83 11.34 C-140.26 11.46, -137.15 11.35, -136.6 11.67 C-136.06 11.98, -137.91 13.02, -137.54 13.24 C-137.17 13.46, -135.16 12.05, -134.38 13.01 C-133.59 13.96, -133.43 17.5, -132.83 18.99 C-132.22 20.47, -131.8 21.58, -130.73 21.94 C-129.67 22.3, -127.27 21.69, -126.42 21.13 C-125.57 20.57, -125.54 19.75, -125.62 18.57 C-125.69 17.39, -126.91 15.02, -126.87 14.04 C-126.82 13.06, -126.01 12.78, -125.33 12.69 C-124.66 12.6, -123.75 13.81, -122.83 13.5 C-121.92 13.19, -119.61 11.62, -119.86 10.82 C-120.1 10.02, -123.85 8.84, -124.31 8.69 C-124.77 8.54, -122.99 10.4, -122.64 9.93 C-122.29 9.46, -122.93 7.56, -122.22 5.87 C-121.52 4.18, -119.02 1.99, -118.41 -0.2 C-117.8 -2.39, -117.88 -5.53, -118.57 -7.27 C-119.26 -9.01, -121.21 -10.35, -122.56 -10.65 C-123.91 -10.94, -125.13 -9.68, -126.68 -9.03 C-128.23 -8.38, -131.25 -6.81, -131.84 -6.74" stroke="#000000" stroke-width="1" fill="none"></path></g></g><g stroke-linecap="round"><g transform="translate(255.71418144476627 142.10602208800884) rotate(0 -21.840416355304058 10.20711971232545)"><path d="M-21.76 -0.13 C-22.14 0.47, -23.04 1.94, -23.77 3.04 C-24.5 4.13, -26.03 5.15, -26.13 6.46 C-26.23 7.76, -24.44 9.54, -24.38 10.84 C-24.33 12.13, -25.57 13.46, -25.8 14.21 C-26.04 14.96, -26.3 14.86, -25.8 15.33 C-25.29 15.8, -23.47 16.59, -22.8 17.03 C-22.13 17.48, -22.24 17.98, -21.76 18 C-21.28 18.02, -20.63 17, -19.93 17.16 C-19.22 17.32, -17.62 18.2, -17.55 18.95 C-17.49 19.7, -19.09 21.21, -19.54 21.66 M-23.04 -1.25 C-23.59 -0.93, -24.38 -0.18, -24.48 1.35 C-24.59 2.88, -23.77 6.14, -23.68 7.91 C-23.58 9.68, -23.89 10.79, -23.91 11.97 C-23.93 13.15, -23.64 14.63, -23.81 14.99 C-23.98 15.36, -25.23 14.01, -24.92 14.16 C-24.61 14.3, -22.87 15.26, -21.97 15.88 C-21.06 16.5, -20.1 17.39, -19.48 17.89 C-18.86 18.4, -18.21 18.88, -18.27 18.92 C-18.33 18.97, -19.68 18.04, -19.84 18.15 C-19.99 18.26, -19.43 18.96, -19.18 19.58" stroke="#000000" stroke-width="1" fill="none"></path></g></g><g stroke-linecap="round"><g transform="translate(241.42398663124652 141.32663199768203) rotate(0 2.85014351662403 8.575056981181419)"><path d="M-0.13 0.45 C0.39 0.31, 1.78 -0.89, 2.58 -0.49 C3.37 -0.08, 4.15 1.74, 4.66 2.89 C5.18 4.05, 5.45 5.27, 5.69 6.44 C5.92 7.61, 6.02 8.59, 6.07 9.93 C6.12 11.27, 6.02 13.52, 5.99 14.49 C5.96 15.46, 5.9 15.54, 5.89 15.75 M-1.66 -0.36 C-1.18 -0.39, 1.12 0.42, 2.07 0.61 C3.01 0.8, 3.39 -0.34, 4.04 0.78 C4.68 1.9, 5.8 5.85, 5.96 7.35 C6.12 8.85, 4.78 8.73, 4.99 9.78 C5.21 10.83, 6.99 12.32, 7.27 13.64 C7.56 14.96, 7.08 17.47, 6.73 17.71" stroke="#000000" stroke-width="1" fill="none"></path></g></g><g stroke-linecap="round"><g transform="translate(264.0041267022368 254.65473751442408) rotate(0 -19.616192531191643 -100.0867212622232)"><path d="M-18.26 -92.36 C-18.44 -92.6, -19.59 -94.23, -19.45 -94.8 C-19.31 -95.38, -17.77 -95.69, -17.41 -95.81 C-17.04 -95.93, -16.97 -95.27, -17.24 -95.52 C-17.52 -95.78, -18.83 -96.85, -19.06 -97.33 C-19.29 -97.81, -18.35 -97.85, -18.62 -98.41 C-18.89 -98.96, -20.08 -99.41, -20.67 -100.65 C-21.26 -101.89, -22.33 -104.64, -22.17 -105.84 C-22.01 -107.03, -20.43 -107.76, -19.72 -107.82 C-19.01 -107.87, -18.1 -106.45, -17.91 -106.18 M-19.48 -92.96 C-19.31 -93.58, -17.44 -96.54, -17.18 -96.79 C-16.93 -97.04, -17.94 -94.31, -17.94 -94.46 C-17.94 -94.61, -17.28 -97.25, -17.19 -97.69 C-17.1 -98.12, -16.82 -96.81, -17.41 -97.07 C-17.99 -97.33, -20.18 -98.47, -20.68 -99.25 C-21.17 -100.04, -20.52 -101.13, -20.38 -101.76 C-20.25 -102.39, -19.81 -102.35, -19.87 -103.03 C-19.94 -103.72, -21.24 -105.38, -20.78 -105.88 C-20.32 -106.39, -17.46 -105.65, -17.1 -106.04" stroke="#000000" stroke-width="1" fill="none"></path></g></g><g stroke-linecap="round"><g transform="translate(230.05296221166827 157.13806437293414) rotate(0 3.4451684652396466 -2.8569348757388866)"><path d="M0.83 -7.95 C1.18 -8.09, 1.43 -7.42, 1.93 -7.52 C2.44 -7.62, 3.21 -8.55, 3.84 -8.54 C4.47 -8.53, 5.57 -8.44, 5.71 -7.46 C5.86 -6.48, 4.9 -3.7, 4.71 -2.64 C4.53 -1.59, 4.68 -1.85, 4.61 -1.12 C4.54 -0.39, 4.58 0.96, 4.28 1.74 M-0.19 -5.78 C0.03 -6.33, 0.57 -9.14, 1.12 -9.41 C1.67 -9.68, 2.23 -7.84, 3.11 -7.42 C3.98 -7, 5.74 -7.79, 6.35 -6.89 C6.97 -6, 7.41 -3.4, 6.77 -2.06 C6.14 -0.72, 2.82 0.18, 2.56 1.14 C2.29 2.11, 4.76 3.28, 5.16 3.72" stroke="#000000" stroke-width="1" fill="none"></path></g></g><g stroke-linecap="round"><g transform="translate(249.5101188667644 148.15613107265648) rotate(358.18735542929625 -5.650476751629924 0.701995608384351)"><path d="M-6.27 0.26 C-6.41 0.2, -5.89 0.23, -5.81 0.48 C-5.72 0.73, -5.77 1.85, -5.75 1.76 C-5.72 1.67, -5.76 0.16, -5.65 -0.07 C-5.54 -0.31, -4.98 0.28, -5.06 0.36 M-4.51 -0.65 C-4.81 -0.57, -6.16 1.97, -6.53 2.05 C-6.89 2.13, -6.8 0, -6.7 -0.19 C-6.61 -0.38, -6 0.71, -5.94 0.9 C-5.88 1.09, -6.49 1.16, -6.34 0.95" stroke="#000000" stroke-width="1" fill="none"></path></g></g><g stroke-linecap="round"><g transform="translate(239.34622368288558 149.1976727594668) rotate(14.802012269513854 -5.821748260007325 0.7993824940319882)"><path d="M-5.3 0.44 C-5.57 0.58, -6.41 0.12, -6.34 0.04 C-6.28 -0.05, -5.1 -0.26, -4.91 -0.08 C-4.72 0.11, -5.29 1.25, -5.19 1.16 C-5.09 1.06, -4.33 -0.35, -4.31 -0.64 C-4.3 -0.94, -4.74 -0.93, -5.11 -0.63 M-6.62 -0.38 C-7.11 0.01, -7.49 1.2, -7.26 1.38 C-7.04 1.56, -5.65 0.53, -5.28 0.7 C-4.92 0.88, -5.02 2.67, -5.08 2.45 C-5.13 2.23, -5.25 -0.48, -5.59 -0.61 C-5.94 -0.74, -6.99 1.48, -7.13 1.66" stroke="#000000" stroke-width="1" fill="none"></path></g></g></svg>